
<!-- Uploaded to: SVG Repo, www.svgrepo.com, Generator: SVG Repo Mixer Tools -->
<svg height="800px" width="800px" version="1.1" id="Capa_1" xmlns="http://www.w3.org/2000/svg" xmlns:xlink="http://www.w3.org/1999/xlink" 
	 viewBox="0 0 142.417 142.417" xml:space="preserve">
<g>
	<g>
		<path style="fill:#010002;" d="M46.273,8.327c-6.294,0-11.396,5.102-11.396,11.395s5.102,11.395,11.395,11.395
			s11.395-5.102,11.395-11.395S52.565,8.327,46.273,8.327z M46.273,28.757c-4.99,0-9.036-4.046-9.036-9.036
			c0-4.989,4.046-9.035,9.036-9.035c4.989,0,9.035,4.046,9.035,9.035C55.308,24.711,51.262,28.757,46.273,28.757z"/>
		<path style="fill:#010002;" d="M57.82,141.979c0,0,3.502-3.064-2.626-8.316c0,0-14.382-16.194-21.385-28.449
			c0,0-3.939-6.564,4.377-15.756c0,0,3.878-13.131,6.066-18.383c0,0-0.864-7.804-3.864-47.304c1.5-16.5,10.928-7.704,11.901-3.168
			c1.198,0.191,5.572,43.821,10.074,48.323c3.876,3.876,7.329-50.708,9.465-56.874c3.616-8.879,9.49-1.647,9.998,1.684
			c0.868,5.688-1.394,54.713-1.394,54.713s10.213-6.565,14.59,6.128c0,0,15.318,1.312,14.005,15.318c0,0,3.21,26.261-6.419,44.643
			l-2.334,7.879L57.82,141.979z"/>
		<g>
			<path style="fill:#010002;" d="M76.357,4.014c-5.523,0-10.002,4.478-10.002,10.001s4.479,10.002,10.002,10.002
				c5.523,0,10.002-4.478,10.002-10.002S81.881,4.014,76.357,4.014z M76.357,21.946c-4.38,0-7.932-3.551-7.932-7.931
				c0-4.379,3.552-7.93,7.932-7.93c4.38,0,7.932,3.551,7.932,7.93C84.289,18.395,80.737,21.946,76.357,21.946z"/>
			<path style="fill:#010002;" d="M76.357,0c-7.74,0-14.016,6.274-14.016,14.015c0,7.74,6.275,14.016,14.016,14.016
				s14.016-6.275,14.016-14.016S84.098,0,76.357,0z M76.357,26.136c-6.694,0-12.123-5.427-12.123-12.122
				c0-6.693,5.429-12.121,12.123-12.121c6.693,0,12.123,5.427,12.123,12.121C88.481,20.709,83.051,26.136,76.357,26.136z"/>
		</g>
	</g>
</g>
</svg>